<svg xmlns="http://www.w3.org/2000/svg" viewBox="0 0 383.08 383.84">
    <defs>
        <style>.cls-1{fill:#e53297;}</style>
    </defs>
    <title>@master p2-page [Recovered]</title>
    <g id="Layer_2" data-name="Layer 2">
        <path class="cls-1"
              d="M18.38,383.84c-5-4.23-10.33-8.13-14.88-12.79-4.92-5-4.5-12.83.26-18.05,2.1-2.31,4.34-4.5,6.61-6.64,2.81-2.64,5.92-2.74,8.35-.41s2.44,5.68-.29,8.64c-1.78,1.93-3.66,3.76-5.55,5.59-1.47,1.42-1.48,2.75,0,4.17,2,1.92,4,3.78,5.8,5.86,2.19,2.55,3.89,2.19,6.14-.08q22.7-22.9,45.58-45.63c6.45-6.45,12.83-13,19.39-19.32,2.41-2.32,2.88-4.13.11-6.41a31.81,31.81,0,0,1-4.5-4.5c-2.29-2.83-4.09-2.64-6.64-.05C65.6,307.57,52.28,320.77,39,334a26.08,26.08,0,0,1-2.73,2.56c-2.62,2-5.75,1.73-7.76-.59s-2.07-5-.2-7.53a17.59,17.59,0,0,1,1.8-1.9Q50.68,306,71.23,285.46c6.39-6.38,12.56-6.88,19.71-2l57.75-57.74a8.3,8.3,0,0,0-.91-1.42c-18.4-22.2-25.84-48-23.81-76.38,3.61-50.66,28.9-89.06,68.9-118.75,3.41-2.53,6.86-2.1,8.87.82s1.3,6.09-2.28,8.66a158.28,158.28,0,0,0-46.59,51.61c-12.22,21.82-18.38,45.15-17.56,70.31,1.54,47,36.89,84.09,83.75,87.6,35.44,2.66,66.48-8.77,94-30.22,28.86-22.48,48.34-51.39,55.84-87.5,6.07-29.21,2.63-57.06-15.37-81.78-15.08-20.72-36-31.94-61.17-35.32-24.22-3.25-47.22,1.4-69.25,11.54-.79.37-1.56.78-2.37,1.12-3.71,1.59-6.74.66-8.26-2.51s-.3-6.14,3.36-7.93A144,144,0,0,1,252.64,3.22c24.27-4.58,48.14-3.43,70.8,7,34.48,15.86,53.95,43.34,58.58,80.7,4.91,39.56-7.47,74.6-31.45,105.62C325.46,229,293,250.72,252.2,258.1c-32.46,5.87-62.93.83-89.8-19.67-.79-.61-1.55-1.27-2.33-1.89s-1.57-1.21-2.08-1.61l-57.61,57.61c5.22,9.14,4.57,13.72-3.28,21.57q-30.75,30.76-61.56,61.46c-3.13,3.1-6.92,5.53-10.41,8.27Z"/>
        <path class="cls-1"
              d="M276.8,28.79c28.66.62,51.55,10.39,66.68,34.44,11,17.48,13.62,36.9,10.51,57-8.4,54.35-52.37,99.82-106.28,110.21-18.2,3.51-36.19,2.6-53.18-5.29-27.2-12.64-40.64-34.95-42.53-64.26-1.76-27.25,6.82-51.78,22.44-73.78C194.94,58.21,222,38.62,257,31a63.63,63.63,0,0,1,7-1.16C268.62,29.39,273.23,29.08,276.8,28.79Zm-55,186.15,22.34-22.27-21.74-21.73-22.35,22.23Zm53.74-53.27-21.89-22.08-22.37,22.29,22,22.09Zm-84.27-22-22.16,22.15,21.77,21.78,22.16-22.12ZM253.53,77l-22.3,22.29L253.11,121l22.5-21.83Zm30.86,75.89,22.37-22.23L284.81,109l-22.23,22.19Zm-62.61-.33,22.31-22.28-21.6-21.6L200,130.85Zm93.88-75.42L293.54,99.29,315.8,121.5l22.12-22.07Zm-53.12-9.11L284.6,90.22l21.74-21.78L284.15,46.31Zm68.66,87-15.28-15.25-22.13,22.07,19.1,19.1Zm-69.26,38.46c4.38,4.28,9,8.85,13.71,13.28a3.13,3.13,0,0,0,2.84.46A115.12,115.12,0,0,0,303,189.8l-18.66-18.7ZM194,80l-18.19,25.65,15.52,15.63,22-22ZM222,90.54l22.3-22.36-15-15a115.83,115.83,0,0,0-26,18.61Zm42.84,123-11.46-11.44-18.22,18.28A98.36,98.36,0,0,0,264.89,213.58Zm-82.8-83-11.69-11.8c-3.69,9.64-6.35,19.51-6.68,30.17Zm154.19,12c3.75-10,6.48-19.95,6.78-30l-18.27,18.2ZM272.5,40.71A94.26,94.26,0,0,0,242,47.49l11.69,12ZM185.17,206.93l21,11,.28-.75L190.82,201.5Zm-18.46-29.3a57.19,57.19,0,0,0,10.42,19.89l4.82-4.68ZM329.77,62.36l-5.21,5.42,15.59,15.54.59-.18Zm-13.89-3,4.75-4.88A56.92,56.92,0,0,0,300.57,44Z"/>
        <path class="cls-1"
              d="M16.18,56.85q0-24.36,0-48.71c0-7.33,3.07-9.58,9.87-7.25,22.41,7.67,44.79,15.42,67.24,23a44.53,44.53,0,0,0,9.84,1.69c5.2.51,10.59,0,15.61,1.21,15.59,3.62,25.08,17.83,23.37,34-1.54,14.6-14.27,27.23-29.46,26.67-16.46-.61-30.54,6.41-45.38,11.12-13.78,4.37-27.38,9.29-41.07,14-7.06,2.41-10,.23-10-7.36Q16.17,81,16.18,56.85ZM28,50.72H91.38c0-4-.2-7.89.06-11.71.19-2.79-1-3.86-3.47-4.7-16.19-5.43-32.32-11-48.48-16.55L28,13.83Zm0,48.54c.36.05.5.12.61.08Q59.08,89,89.48,78.55c.76-.26,1.76-1.26,1.79-1.95.16-4.56.08-9.13.08-13.73H28.06Zm75.09-23.33c12.29,1.64,20.59-1.57,25.12-9.54a19.36,19.36,0,0,0-1.7-21.78c-5.25-6.53-14.7-9.24-23.41-6.69Z"/>
    </g>
</svg>