<svg xmlns="http://www.w3.org/2000/svg" viewBox="0 0 384.03 370.16">
    <defs>
        <style>.cls-1{fill:#e53297;}</style>
    </defs>
    <title>@master p2-page [Recovered]</title>
    <g id="Layer_2" data-name="Layer 2">
        <path class="cls-1"
              d="M384,134.26c-1.17,5.59-1.93,11.3-3.57,16.74-9.93,32.92-31.58,54.28-64.45,64.12-13.53,4-19.26,10.42-20.63,24.55-2.77,28.72-5.58,57.43-8.15,86.17-.8,8.94-5.34,15.37-12,20.73-10.12,8.15-22,12.73-34.26,16.32Q182.6,380,126.25,356.83a64.64,64.64,0,0,1-21.56-14,27,27,0,0,1-7.9-17.3q-4-44.4-8.36-88.78c-1-10.84-8.14-18.21-20-21.54-26.28-7.4-46-23.14-58.41-47.44C-18.39,112.27,16.4,44.05,77.86,34.36A90.45,90.45,0,0,1,115,36c2.12.55,3.48.4,5.05-1.52,37.64-46,106.1-45.93,144,.09,1.43,1.73,2.63,2,4.72,1.49,53.72-13,106,22.12,114.32,76.6.26,1.71.61,3.42.91,5.12ZM200.94,324.39c19.85,0,46.89-7,72.45-20.06a4.64,4.64,0,0,0,2.88-4.23c1.84-20.15,4-40.26,5.69-60.43,1.61-19.78,11.29-31.93,30.54-37.26,40-11.08,65.05-51.43,56.84-91.45-9.87-48.05-57.54-75.61-104.06-60-3.62,1.22-5.26.6-7.43-2.54-14.41-20.87-34.32-33-59.65-34.76-30.82-2.1-55.08,10.34-72.68,35.65-1.63,2.35-2.86,3-5.67,1.94a76.89,76.89,0,0,0-40.19-3.79c-35.73,6-64,37.22-66.23,72-2.58,39.54,22.35,73,58.08,82.94,19.4,5.38,29,17.46,30.59,37.62s3.82,40,5.66,60.05a4.63,4.63,0,0,0,2.9,4.21C136.2,317.4,163.24,324.39,200.94,324.39ZM274.05,319Q191.89,356.5,110,319c-1.13,8.46,2.26,14.57,9.23,18.69,4.81,2.85,9.63,5.85,14.8,7.92a153.09,153.09,0,0,0,91.82,7.55c13.79-3,27.2-7.26,39.1-15.37C271.56,333.24,275.25,327.5,274.05,319Z"/>
        <path class="cls-1"
              d="M103,66.17c.75,0,1.5,0,2.25,0,4.3.17,7.17,2.76,7.22,6.53s-2.85,6.4-7.07,6.77C100,80,94.41,80,89.1,81.15c-17.92,4-30.3,14.57-36.1,32.3-1.45,4.44-4.68,6.53-8.36,5.45-4.08-1.2-5.83-4.89-4.13-9.65,8.34-23.32,24.95-37,49.14-41.66C94,66.76,98.56,66.52,103,66Z"/>
        <path class="cls-1"
              d="M192.64,29.09c12.77,0,24.3,3.9,34.86,10.87,4.35,2.88,5.43,6.62,3.05,10.09-2.24,3.26-6.13,3.69-10.23,1-18.91-12.2-37.81-11.58-56.69,0-4.13,2.55-8,2.14-10.19-1.18s-1.28-7,2.87-9.86A63.38,63.38,0,0,1,192.64,29.09Z"/>
        <path class="cls-1"
              d="M138.85,282.68c.24,5.29-1.91,8.16-5.76,8.5s-6.63-1.83-7.17-6q-3.41-26-6.58-52c-.52-4.29,1.88-7.41,5.6-8s6.91,2,7.47,6.24C134.68,248.75,136.78,266.11,138.85,282.68Z"/>
        <path class="cls-1"
              d="M245.23,282.53c2.05-16.58,4.12-33.65,6.31-50.7.57-4.48,3.78-7.16,7.48-6.67s6.22,3.75,5.68,8.24q-3.13,25.6-6.47,51.17c-.62,4.73-3.36,7-7.37,6.6S244.89,287.86,245.23,282.53Z"/>
        <path class="cls-1"
              d="M218.44,271.51c0,8.37,0,16.73,0,25.1,0,5-2.44,7.88-6.5,7.91s-6.58-2.85-6.59-7.81q-.06-25.29,0-50.58c0-5,2.53-7.75,6.68-7.68,4,.08,6.37,2.8,6.4,7.58C218.48,254.52,218.44,263,218.44,271.51Z"/>
        <path class="cls-1"
              d="M178.72,271.8c0,8.24,0,16.48,0,24.73,0,5.07-2.37,7.91-6.42,8s-6.65-2.81-6.66-7.73c0-17,0-34,0-51,0-2.83.67-5.57,3.44-6.45,2-.64,5-.79,6.56.31a9,9,0,0,1,3,6.27C178.91,254.56,178.71,263.19,178.72,271.8Z"/>
    </g>
</svg>