<svg id="Layer_1" data-name="Layer 1" xmlns="http://www.w3.org/2000/svg"
     viewBox="0 0 210.58 182.59">
    <title>atmasterfinal</title>
    <g id="oq9Or2.tif">
        <path d="M14.25,98.46a9.38,9.38,0,0,1,3.29-4.1q17.2-13.85,34.35-27.77a6,6,0,0,1,8.44.8,5.65,5.65,0,0,1-1,8.33l-29,23.51c-.33.27-.63.56-1.06.94l9.54,7.72c6.86,5.54,13.74,11.05,20.56,16.63a5.75,5.75,0,0,1-1,9.85,5.82,5.82,0,0,1-6.64-.84q-13.5-10.92-27-21.82c-2.19-1.77-4.33-3.58-6.56-5.29a11.73,11.73,0,0,1-3.93-4.47Z"/>
        <path d="M67.69,175.59a14.93,14.93,0,0,1-1.59-.12c-4.34-.79-6-4.27-3.83-8.38Q72.9,146.53,83.58,126,109.74,75.59,135.9,25.17c1-2,2.44-3.48,4.78-3.78a5.71,5.71,0,0,1,5.73,2.37,5.65,5.65,0,0,1,.32,6.3q-6.22,12-12.42,24l-61,117.56c-.2.39-.4.78-.6,1.16A5,5,0,0,1,67.69,175.59Z"/>
        <path d="M177.31,100.13l-8.66-7L147.09,75.63a5.63,5.63,0,0,1-.9-8.23,6,6,0,0,1,8.44-.81q9.49,7.67,19,15.36c5.31,4.29,10.52,8.72,16,12.82a6.78,6.78,0,0,1,.12,10.59c-11.79,9.29-23.38,18.83-35.05,28.27a5.71,5.71,0,0,1-6.53.72,5.57,5.57,0,0,1-3.23-5.83,5.82,5.82,0,0,1,2.42-4.13l28-22.64Z"/>
    </g>
</svg>