<svg xmlns="http://www.w3.org/2000/svg" viewBox="0 0 77.35 78.79">
    <defs>
        <style>.cls-1{fill:#fff;}</style>
    </defs>
    <title>@master p2-page</title>
    <g id="Layer_2" data-name="Layer 2">
        <g id="EfK9M1.tif">
            <path class="cls-1"
                  d="M44.32,63.16H22L21.37,63a5.5,5.5,0,0,1-4.29-5.53q0-8.52,0-17c0-5.26,0-10.51,0-15.77a5.33,5.33,0,0,1,4.49-5.28,32.12,32.12,0,0,1,4.05-.13h.66c0-.29,0-.49,0-.7a5.53,5.53,0,0,1,4.29-5.39l.61-.16H53.53l.61.16a5.52,5.52,0,0,1,4.3,5.58q0,10.19,0,20.37c0,4.15,0,8.29,0,12.44A5.33,5.33,0,0,1,54,56.77a33.42,33.42,0,0,1-4.1.13h-.66c0,.32,0,.56,0,.8a5.54,5.54,0,0,1-4,5.21C44.95,63,44.63,63.08,44.32,63.16Zm-23.7-22q0,8,0,16.06a2.05,2.05,0,0,0,2.3,2.34H43.38a2,2,0,0,0,2.29-2.3q0-16.09,0-32.17a2.06,2.06,0,0,0-2.33-2.32H23a2.08,2.08,0,0,0-2.36,2.38Q20.61,33.19,20.61,41.19Zm28.6,12.17h3.24c1.7,0,2.44-.74,2.44-2.45q0-16,0-31.93a4.25,4.25,0,0,0-.06-.83,1.9,1.9,0,0,0-1.72-1.56c-.26,0-.52,0-.78,0H36.07c-1.37,0-2.74,0-4.11,0a2,2,0,0,0-2.13,2.07c0,.45.08.62.58.62q6.49,0,13,0a6.87,6.87,0,0,1,2.07.29A5.45,5.45,0,0,1,49.21,25q0,13.83,0,27.67Z"/>
        </g>
    </g>
</svg>