<svg id="Layer_1" data-name="Layer 1" xmlns="http://www.w3.org/2000/svg"
     viewBox="0 0 216.77 216.61">
    <title>atmasterfinal</title>
    <g id="V9O0hK.tif">
        <path d="M80.25,113.33,23.1,56.19,56.19,23.08l56.64,56.66c1.37-1.31,2.27-2.14,3.14-3l43.32-43.31c7.43-7.43,18.32-7.7,25.3-.65s6.57,17.78-.72,25.06Q123.14,118.58,62.35,179.25a14.84,14.84,0,0,1-6,3.5c-7.39,2.2-14.88,4.07-22.34,6-4.64,1.23-6.77-1-5.51-5.67,2-7.56,3.93-15.16,6.14-22.67A13.39,13.39,0,0,1,37.78,155Q57.25,135.3,76.94,115.8A30.49,30.49,0,0,1,80.25,113.33Zm82.49-71.56L43.39,161.11l12.7,12.78L175.48,54.5ZM34.33,55.42l50.93,50.93,17.57-17.53-3.73-4,4-4.29L98,75.12l-7.58,8-6.16-5.78,8.55-6.8L87.57,65l-3.94,3.62-5.46-5,3.52-3.77-5.33-6.57-6.62,8.58-6-5.3,7.62-7.1-4.76-5.64-4,3.69-5.47-4.86,3.68-4.07-5.12-5.73Z"/>
        <path d="M161.41,184.48l22.2-23.5c-1-1.12-1-1.12-5.81,2.34l-4.92-5.07,4-4.28-5.65-4.71-6.76,8L159,151l8.19-6.82-6.41-5.31-3.91,3.71L152,137l3.78-4.24-5.42-4.87-6.82,8.6-6.41-6.14,8.65-7.27-6.18-5.12-3.8,3.53L131,116.34l8.55-9.28,54.13,54.11-32.34,32.36L107.5,139.69l5.07-4.11Z"/>
    </g>
</svg>