<svg xmlns="http://www.w3.org/2000/svg" viewBox="0 0 77.3 62">
    <defs>
        <style>.cls-1{fill:#fff;}</style>
    </defs>
    <title>@master p2-page</title>
    <g id="Layer_2" data-name="Layer 2">
        <g id="XA72zj.tif">
            <path class="cls-1"
                  d="M19.39,14c.47,0,.94-.13,1.4-.13h35c1.22,0,2.45,0,3.67,0,.39,0,.78.09,1.3.15l-2.51,2.37-7.66,7.22c-2.45,2.31-4.88,4.63-7.35,6.92a4.59,4.59,0,0,1-6.48,0c-4.21-3.93-8.39-7.9-12.58-11.85l-4.81-4.53Z"/>
            <path class="cls-1"
                  d="M60.79,44.95a12.57,12.57,0,0,1-1.36.14H20.6a11.31,11.31,0,0,1-1.34-.16l0-.13,16-11.92a7.47,7.47,0,0,0,9.59,0l16,11.92Z"/>
            <path class="cls-1"
                  d="M17.42,16.05,33.74,31.43l-16.16,12a3.88,3.88,0,0,1-.52-1.78q0-9.65,0-19.3c0-1.65,0-3.3,0-5a10.49,10.49,0,0,1,.19-1.35Z"/>
            <path class="cls-1"
                  d="M46.32,31.43,62.76,15.94A11.06,11.06,0,0,1,63,17.46q0,12.08,0,24.16a10.45,10.45,0,0,1-.39,1.94Z"/>
        </g>
    </g>
</svg>