<svg xmlns="http://www.w3.org/2000/svg" viewBox="0 0 78.64 57">
    <defs>
        <style>.cls-1{fill:#fff;}</style>
    </defs>
    <title>@master p2-page</title>
    <g id="Layer_2" data-name="Layer 2">
        <g id="cxk5G1.tif">
            <path class="cls-1"
                  d="M42,8h8.83v8.5H45.65A2.15,2.15,0,0,0,43.18,19c0,1.51,0,3,0,4.53,0,.16,0,.32,0,.53H51l-.9,8.72H43.17V57.36H32.92V32.68H28V24.08a4.53,4.53,0,0,1,.6-.08h4.31c0-1.82,0-3.55,0-5.28a16.86,16.86,0,0,1,.3-3.08A8.81,8.81,0,0,1,40,8.38C40.67,8.21,41.36,8.13,42,8Z"/>
        </g>
    </g>
</svg>