<svg id="Layer_1" data-name="Layer 1" xmlns="http://www.w3.org/2000/svg"
     viewBox="0 0 216.77 216.61">
    <title>atmasterfinal</title>
    <g id="snNlZL.tif">
        <path d="M136.47,169.85H124.93c11.16-7.38,17.88-17.86,21.49-30.51l.4,0q0,6.13,0,12.25c0,6.68.32,13.38-.05,20-.53,9.41-2.9,18.38-8.84,26-6.26,8-14.7,11.38-24.69,10.3-11.45-1.23-22-5.17-31-12.51-6.28-5.12-10.56-11.58-12-19.68-1.68-9.65,1.07-18.2,6.84-25.89a40.9,40.9,0,0,1,13.34-11.6c9.74-5.26,14.41-13.75,15.93-24.3a91.65,91.65,0,0,0,.56-9.5,1.79,1.79,0,0,0-.61-1.38c-4.85-2.92-6.76-7.43-7-12.82-.2-5.13,1.2-9.68,5.23-13.18a1.73,1.73,0,0,0,.43-1.33,44.78,44.78,0,0,1,.27-13.67,1.75,1.75,0,0,0,0-.83,3.45,3.45,0,0,1,1.23-4.12c-.51-1.15-1.32-2.19-1.36-3.27s.7-2.08,1.06-3a14.73,14.73,0,0,1-1.5-3.06,2.89,2.89,0,0,1,1.4-3c-.51-1.18-1.34-2.26-1.36-3.36s.8-2.13,1.32-3.34a3.27,3.27,0,0,1-1.26-3.85c.6-1.89,2.15-2.43,4.1-2.25V3h5.58V31.72c4.22.9,4.4,4.78,2.06,6.41.49,1.15,1.32,2.23,1.33,3.33s-.79,2.13-1.3,3.35c2,2,2,3.42-.05,5.76,2.54,2.27,2.6,4,.19,6.34,1.55,1.15,1.79,2.6,1.56,4.53s.49,3.88.5,5.83c0,3-.25,6-.32,8.94a2.46,2.46,0,0,0,.52,1.66c6.16,6.09,5.79,18.79-.95,24.12a2.46,2.46,0,0,0-.69,1.77c.18,8.84-1,17.42-4.72,25.53a37.8,37.8,0,0,1-16.2,17.48,33.7,33.7,0,0,0-12.9,12.17c-5.59,9.39-4.31,19.56,3.67,27,7.77,7.27,17.34,10.71,27.73,11.77,7.44.76,13-2.73,16.65-9.14,3.23-5.63,4.52-11.81,4.91-18.22A2.9,2.9,0,0,0,136.47,169.85ZM114.63,85.24c-2.33,1.54-4.36,1.15-6.3-.52-1.45,3.35-1.59,6.51.1,9.58,1.54,2.81,4.29,2.81,5.86,0S115.81,88.45,114.63,85.24Zm-5-22.09a33.79,33.79,0,0,0-.2,11.52l4.7.21a35,35,0,0,0-.2-11.7A3.28,3.28,0,0,1,109.65,63.15Z"/>
    </g>
</svg>