<svg xmlns="http://www.w3.org/2000/svg" viewBox="0 0 249.59 355.52">
    <defs>
        <style>.cls-1{fill:#e53297;}</style>
    </defs>
    <title>@master p2-page [Recovered]</title>
    <g id="Layer_2" data-name="Layer 2">
        <path class="cls-1"
              d="M98.53,345c-5.74-23.09-12-45.5-25.55-64.85-4.44-6.34-10.53-11.56-16.14-17-2-2-3.45-3.76-3.3-6.69s0-5.75,0-8.62c0-5,1.74-6.68,6.81-6.74s10,0,15,0c.79,0,1.59-.17,3.41-.39-34.54-14.95-58.36-39-71.1-73.53A120.26,120.26,0,0,1,5.28,89.5C21.48,35,70.36-.65,127.58,0c54.16.62,102.88,38.42,117.29,91.18,8.33,30.52,5.66,60.18-8.32,88.57-13.9,28.24-35.82,48.16-64.6,61.31h15.81c7.08,0,7.82,1.28,8.45,8.25.69,7.69-1.85,12.66-7.94,17.75-6.35,5.31-11.36,12.58-15.84,19.7-8.72,13.85-18.23,41.36-21,58.23h89.89a18.69,18.69,0,0,1,3.74.12c2.77.57,4.4,2.29,4.36,5.24,0,2.77-1.64,4.4-4.21,5a16.78,16.78,0,0,1-3.73.14H8.21a19.29,19.29,0,0,1-3.37-.08c-2.78-.5-4.53-2.12-4.56-5.06,0-3.12,1.75-4.83,4.72-5.29A22.25,22.25,0,0,1,8.38,345H98.53ZM124.66,238.8c61.82.56,113.6-50.27,114.26-112.18C239.6,63.08,189.41,11.14,126.7,10.49c-63.62-.66-115.42,49.7-116,112.74C10.19,187,60.65,238.22,124.66,238.8Zm-61.5,12.92c1.27,2.16,1.92,3.88,3.08,5.12,3.15,3.36,6.78,6.31,9.76,9.8,10.43,12.24,17.33,26.51,22.53,41.55,4.14,12,7.54,24.24,11.33,36.57h29.67c4.71-14.55,8.73-28.86,14-42.7,6.65-17.52,15.65-33.74,30.66-45.84,1-.81,1.11-2.76,1.76-4.51Z"/>
        <path class="cls-1"
              d="M207.49,149.32a11.92,11.92,0,0,1-11.9-11.93,12.09,12.09,0,0,1,12.26-12,12,12,0,0,1,11.64,12.19A11.78,11.78,0,0,1,207.49,149.32Z"/>
        <path class="cls-1"
              d="M138.84,178.55a11.87,11.87,0,0,1-11.74-12.06,12,12,0,1,1,24,.46A11.93,11.93,0,0,1,138.84,178.55Z"/>
        <path class="cls-1"
              d="M124.73,224.33a11.85,11.85,0,0,1-11.88-11.9,12,12,0,1,1,23.95.17A11.89,11.89,0,0,1,124.73,224.33Z"/>
        <path class="cls-1"
              d="M180.42,142.65a11.7,11.7,0,0,1-11.82,11.9,11.9,11.9,0,0,1-12.07-11.74,12.13,12.13,0,0,1,12.11-12.19A11.93,11.93,0,0,1,180.42,142.65Z"/>
        <path class="cls-1" d="M190.59,183.79a11.84,11.84,0,0,1-11.76-12,12,12,0,1,1,11.76,12Z"/>
        <path class="cls-1"
              d="M173,198.43c-.07,6.81-5.41,11.86-12.37,11.71A11.9,11.9,0,0,1,149,198.26a12.08,12.08,0,0,1,12.28-12A11.89,11.89,0,0,1,173,198.43Z"/>
    </g>
</svg>