<svg id="Layer_1" data-name="Layer 1" xmlns="http://www.w3.org/2000/svg"
     viewBox="0 0 216.77 216.61">
    <title>atmasterfinal</title>
    <g id="ppF2Sm.tif">
        <path d="M118.78,182.47l-2.89-.55c-1.31-.26-2.68-.56-3-2.07s.73-2.54,1.89-3.32c3-2,6-4,9.06-5.93l13-8.41-9-9.39q-2.71-2.84-5.44-5.67c-2.6-2.68-5.58-2.79-8.27-.2-6.59,6.37-13.08,12.84-19.74,19.14-4,3.83-8.94,5.91-14.58,5.09a13.24,13.24,0,0,1-10.28-7.47c-8.59-17.55-17-35.18-25.47-52.8-2.26-4.72-.27-9.64,4.68-12l52.82-25.08,1.69-.83L89.39,63.46c-1.38-.95-2.78-1.87-4.13-2.86-1.64-1.2-2-2.88-1-4.36s2.67-1.77,4.4-.62c2.88,1.91,5.71,3.88,8.57,5.82.42.28.86.52,1.53.93,0-.8,0-1.36,0-1.92q0-11.08,0-22.15a7.68,7.68,0,0,1,.21-2,2.76,2.76,0,0,1,2.76-2.14,2.72,2.72,0,0,1,2.88,2,6.89,6.89,0,0,1,.28,2.16q0,13.51,0,27a2.37,2.37,0,0,0,1.2,2.29c3,2,6,4,9.28,6.31,0-.79,0-1.32,0-1.84q0-12.81,0-25.61a3.07,3.07,0,1,1,6.11-.27c0,.47,0,.94,0,1.41q0,12.26,0,24.51c0,1.93,0,3.87,0,6,1.55,1.08,3.26,2.27,5,3.48s2.16,2.94,1.11,4.44-2.83,1.7-4.58.52c-2-1.35-3.95-2.76-6-4a1.85,1.85,0,0,0-1.59-.12C103.18,89.63,90.28,95.63,77.58,102c-4.06,2-4.87,4.5-2.73,8.54q6.36,12.07,12.75,24.12c1.87,3.53,3.9,3.92,7,1.32,5.34-4.56,10.63-9.16,16-13.7a9.38,9.38,0,0,1,13.28.59q14,14,27.86,28.13c.29.3.6.57,1,.93l7.92-5.09q13-8.38,26-16.74a7.3,7.3,0,0,1,2.57-1,1.71,1.71,0,0,1,2.21,1.92,9.94,9.94,0,0,1-.55,2.9,65.5,65.5,0,0,1-21.1,30.4c-11.42,9.37-24.33,15.58-39,17.78l-2.76.42Z"/>
        <path d="M25.43,73.41c1-2.26,1.75-4.72,3.14-6.73A15.6,15.6,0,0,1,47.08,61.1a16,16,0,1,1-21.35,18,3.65,3.65,0,0,0-.3-.7Q25.43,75.92,25.43,73.41Z"/>
    </g>
</svg>