<svg xmlns="http://www.w3.org/2000/svg" viewBox="0 0 511 511">
    <defs>
        <style>.cls-1{fill:#fff;}</style>
    </defs>
    <title>@master p2-page [Recovered]</title>
    <g id="Layer_2" data-name="Layer 2">
        <g id="Mcygkt.tif">
            <path class="cls-1"
                  d="M511,211v90a4.57,4.57,0,0,0-.83,1.17c-5.4,17.85-17.17,26.67-35.61,26.67H328.85v6.44q0,70,0,139.9c0,14.4-6,25.33-18.8,32.25-2.57,1.39-5.36,2.39-8,3.57H209c-.22-.24-.4-.62-.66-.69-18-4.7-26.56-20.12-26.36-38.1.5-45.81.17-91.63.17-137.45v-5.92H175.3q-70.73,0-141.45,0A34.13,34.13,0,0,1,13,321.66C6,316.43,2.7,308.92,0,301V210c7.2-23.34,23-28.18,41.55-28,44.82.47,89.66.15,134.49.15h6.11c0-2.7,0-4.68,0-6.66q0-70.49,0-141c0-12.87,5.61-22.85,16.46-29.55,3.73-2.3,8.23-3.35,12.38-5h89c22.23,7.85,28.85,17.28,28.85,41.14q0,67.46,0,134.91v6.12h6.64q69.45,0,138.91,0c9.86,0,18.67,2.6,26.07,9.45C506.2,196.91,508.75,203.85,511,211Z"/>
        </g>
    </g>
</svg>