<svg xmlns="http://www.w3.org/2000/svg" viewBox="0 0 442.1 452.38">
    <title>snow-board-icon</title>
    <g id="Layer_1" data-name="Layer 1">
        <g id="wujJJQ.tif">
            <path d="M0,352.1c.43-21.46,10.86-44.83,32.25-63.17,31-26.56,62.56-52.48,92.72-79.94,52.86-48.12,99.77-101.79,143.4-158.36,6.5-8.42,13.09-16.91,20.58-24.42C325.63-10.56,384-8.32,418.09,30.9c37.52,43.18,28.76,103-10.3,134.83q-49.77,40.53-97.12,84c-50.36,46.15-94.84,97.76-136.55,151.79q-7,9.1-14.26,18c-32.82,40.38-93,44.19-130.18,7.74C12.53,410.45,0,389.43,0,352.1ZM258.72,106.29c14.17,2.5,22.86,11.74,31.65,20.91q12.81,13.34,25.89,26.43c9,9.05,18.74,17.59,21.17,31.93,2.28-1.79,3.84-3,5.35-4.2,14.31-11.72,28.69-23.35,42.86-35.23A96.78,96.78,0,0,0,397.86,134c12.86-15.47,18.09-33.35,14.33-53.14-5-26.24-20.72-43.94-46.34-51.05-25.47-7.08-47.08,1.25-63.77,21.38-13.72,16.54-26.7,33.69-40,50.57C261.17,102.87,260.33,104.1,258.72,106.29ZM104.6,264.71c-19.63,16.43-39,31.21-56.71,47.8-28.09,26.33-26.5,69.45,2.28,94.55,28.19,24.58,66.06,21.2,89.53-8,8.57-10.64,17.18-21.25,25.76-31.89,5.84-7.25,11.65-14.53,17.67-22a13.72,13.72,0,0,0-2.55-1.28c-9.6-2.2-17.24-7.5-24-14.52-11-11.42-22-22.78-33.26-33.9C114.81,287,107.21,278.18,104.6,264.71Zm166.82-16.62a411.42,411.42,0,0,1-70-71l-29.73,27.35a413,413,0,0,1,70.17,71.21Zm39.9-51.15c.19-6.57-2.45-11.91-7-16.52q-19.64-19.94-39.2-40c-9.86-10-22.33-10.45-31.82-1.17-10.16,9.93-10.47,23.11-.62,33.24,13.24,13.61,26.6,27.11,39.88,40.68,6.77,6.92,14.79,8.79,23.76,5.44C305.15,215.38,311.29,206.12,311.31,196.94Zm-94.88,97.57c.15-6.57-2.52-11.87-7.07-16.48-13.11-13.28-26.11-26.66-39.21-39.95-9.8-9.94-22.38-10.29-31.84-1-10,9.79-10.31,23-.74,32.88q19.86,20.42,39.89,40.68c7.14,7.24,15.63,9.18,24.12,5.68A24.18,24.18,0,0,0,216.43,294.51Z"/>
            <path d="M274.2,196.29a13.77,13.77,0,0,1,13.87-14c7.75.09,14.24,6.9,14.34,15.05a13.63,13.63,0,0,1-13.81,14C280.92,211.2,274.2,204.16,274.2,196.29Z"/>
            <path d="M193.14,308.82a15.13,15.13,0,0,1-14.82-15c.13-7.51,6.64-14.46,13.68-14.58,7.28-.13,14.82,8,14.78,16A13.52,13.52,0,0,1,193.14,308.82Z"/>
        </g>
    </g>
</svg>