<svg xmlns="http://www.w3.org/2000/svg" viewBox="0 0 495.01 511.16">
    <title>toymaker-icon</title>
    <g id="Layer_1" data-name="Layer 1">
        <g id="QGfqAS.tif">
            <path d="M157.9,60.83c36.74.57,65.63,3.88,94.16,10.21,4.31,1,6.13.05,7.39-4.46,3.67-13.13,7.76-26.16,12.06-39.1C278.4,6.8,299.1-1.9,314,.34c21.59,3.26,36.52,19.44,35.35,39.71-.63,10.89-4.69,21.62-7.49,32.34-1.68,6.43-3.81,12.76-5.95,19.06-1.22,3.59-.23,5.19,3.39,6.65,35.83,14.5,69.6,32.67,99.53,57.4,19.4,16,36.63,34,47.91,56.88,9.51,19.29,10.8,39,4.11,59.57-8.8,27-17.38,54.15-25.44,81.41-5.75,19.45-17.56,34.62-32,47.95-32,29.48-69.92,48.18-111.58,59.83a263.52,263.52,0,0,1-81,9.84c-11.28-.41-22.52-2.07-33.74-3.48-3.46-.44-5.31-.39-6.39,3.72-2.24,8.51-5,16.9-8.08,25.16-4.41,12-17.11,17.52-29.84,13.46-11.06-3.52-17.89-16.61-14.57-28.26,2.19-7.68,4.47-15.34,7-22.89,1.4-4.1,1.07-6.27-3.44-8.39-54.7-25.65-94.95-66.49-123.95-119-11.57-20.94-20.45-43-25.1-66.47-3.86-19.48-4.08-38.74,2.36-58.08,9.08-27.27,17-54.92,25.48-82.41,6-19.41,18.87-33,36.21-42.69,16.77-9.4,34.94-14.74,53.9-17.18C135.5,62.62,150.44,61.55,157.9,60.83Zm94.55,28.39c-2.82-.78-5-1.55-7.24-2-9.16-1.71-18.3-3.63-27.52-4.91-35.49-4.91-71-6.4-106.29,1.48-16.35,3.65-32,9.06-45.53,19.46C48,117,42.22,135.34,48.88,156.87c5.94,19.2,18.27,34.34,32.21,48,23.85,23.43,51.76,41.24,81.65,55.92a477.17,477.17,0,0,0,136.89,43.45c34.77,5.47,69.54,7.32,104.4,1.26,17.48-3,34.39-7.9,49.42-17.79,24.2-15.91,30.73-39.94,18.21-66.06-8.58-17.91-21.35-32.5-35.94-45.59-26.28-23.58-56.44-41.07-88.4-55.65-5.8-2.65-11.73-5-18-7.67-2.91,9.42-5.36,18-8.29,26.49-1,2.8-.12,3.92,2,5.11,5.54,3.06,11.16,6,16.51,9.35,16.5,10.34,31.69,22.15,41.79,39.3,11.87,20.15,6.2,39.22-14.71,49.6-17.25,8.57-35.88,10.13-54.57,9.14A299.92,299.92,0,0,1,268.19,246a232.87,232.87,0,0,1-86.32-36.45c-14.51-10-27.56-21.6-35.41-37.9-8.7-18.07-3.19-34.78,14.47-44.42,12.74-7,26.64-9.69,40.85-10,12.1-.3,24.24,1,36.38,1.33,1.78.05,4.78-.77,5.2-1.92C246.62,107.69,249.38,98.67,252.45,89.22Zm209.1,215c-7.72,3.46-14.95,7.21-22.53,10-31.35,11.54-64,13.56-96.95,12-38.22-1.8-75.58-9-112.19-20.23-50.67-15.59-98.21-37.33-140.13-70.24-21.65-17-40.81-36.27-52.92-61.55a12.54,12.54,0,0,0-2.1-2.34,11.46,11.46,0,0,0-1.16,2c-3.52,11.27-6.35,22.8-10.64,33.76-7.56,19.33-6.42,37.63,3.85,55.58,11.78,20.61,28.15,37.09,46.79,51.35C127,355.42,188.06,379,253.25,392.71a366.43,366.43,0,0,0,85.8,7.78c24-.66,47.48-3.62,69.78-12.85,16.52-6.83,31.43-16.07,37.81-34,5.51-15.49,10-31.35,14.88-47.06A8.3,8.3,0,0,0,461.55,304.26ZM388,414.1l-.65-1.43c-64.31,11.95-126.89,3-188.47-16.06s-118-47.12-165.27-94.27c.68,2.08.84,2.67,1.06,3.25.35.93.7,1.87,1.13,2.77,21.34,44.43,51.57,81.35,92.59,109a210.07,210.07,0,0,0,112.94,36.47c41,1.28,80-7.61,117.15-24.56C368.55,424.7,378.19,419.19,388,414.1ZM248.37,161.88c-.07,13.55,7.75,23.31,17.86,25.12,11.5,2.07,22.46-3.6,26-14.31,7.26-22.27,14.08-44.68,21-67.05C319.38,85.81,325.59,66,331.58,46.1c4.67-15.5-10.81-31.64-26.52-27.84-9.95,2.4-15.34,9.15-18.24,18.59-10.76,35-21.66,69.86-32.46,104.79C252,149.23,249.85,156.88,248.37,161.88Z"/>
        </g>
    </g>
</svg>