<svg xmlns="http://www.w3.org/2000/svg" viewBox="0 0 377 384">
    <defs>
        <style>.cls-1{fill:#fff;}</style>
    </defs>
    <title>@master p2-page</title>
    <g id="Layer_2" data-name="Layer 2">
        <path class="cls-1"
              d="M47.4,326.18c-.93-4.09.81-7,3.67-9.87q61.74-61.56,123.34-123.25l3.53-3.53c-19.65-24-27.56-51-22.43-81.34,4-23.45,15.41-42.9,33.68-58A97.58,97.58,0,0,1,329.38,184c-17,22.41-39.82,35.32-67.87,38.18-27.86,2.85-52.52-5.37-74.27-23.41l-3.55,3.55Q122.05,264,60.45,325.69c-2.86,2.87-5.78,4.58-9.87,3.67ZM313,67.15C282.18,33.63,228.27,31.77,194.09,63c-34,31.08-36.38,85.46-5.28,119.13A84.88,84.88,0,0,0,309,187.37C343.43,155.77,345.2,102.21,313,67.15Z"/>
        <path class="cls-1"
              d="M265.11,102.31a26,26,0,1,1,.31-36.62A25.83,25.83,0,0,1,265.11,102.31Zm-9-9.29a13,13,0,1,0-18.57,0A13.13,13.13,0,0,0,256.12,93Z"/>
    </g>
</svg>